# This file uses centimeters as units for non-parametric coordinates.

mtllib ColliderPerimetro.mtl
g default
v -98.999033 22.276026 -27.589438
v -98.999033 -0.114303 -27.589438
v -93.718263 22.276026 -32.413360
v -93.718263 -0.114303 -32.413360
v -85.558153 22.276026 -23.946488
v -85.558153 -0.114303 -23.946488
v -100.414340 22.276026 -28.968620
v -100.414340 -0.114303 -28.968620
v -108.355257 22.276026 -30.140101
v -108.355257 -0.114303 -30.140101
v -141.739290 22.276026 -29.945398
v -141.739290 -0.114303 -29.945398
v -141.739290 22.276026 -15.949238
v -141.739290 -0.114303 -15.949238
v -135.284036 22.276026 -8.917673
v -135.284036 -0.114303 -8.917673
v -134.741523 22.276026 -7.128032
v -134.741523 -0.114303 -7.128032
v -132.036974 22.276026 -3.970924
v -132.036974 -0.114303 -3.970924
v -132.036974 22.276026 4.080260
v -132.036974 -0.114303 4.080260
v -109.898802 22.276026 4.080260
v -109.898802 -0.114303 4.080260
v -106.722043 22.276026 7.126663
v -106.722043 -0.114303 7.126663
v -100.222814 22.276026 7.126663
v -100.222814 -0.114303 7.126663
v -100.222814 22.276026 14.887352
v -100.222814 -0.114303 14.887352
v -106.009265 22.276026 14.887352
v -106.009265 -0.114303 14.887352
v -106.009265 22.276026 20.048330
v -106.009265 -0.114303 20.048330
v -99.521773 22.276026 25.456190
v -99.521773 -0.114303 25.456190
v -87.893168 22.276026 25.456190
v -87.893168 -0.114303 25.456190
v -82.345261 22.276026 18.723212
v -82.345261 -0.114303 18.723212
v -79.669439 22.276026 10.435823
v -79.669439 -0.114303 10.435823
v -72.979068 22.276026 10.435823
v -72.979068 -0.114303 10.435823
v -72.979068 22.276026 4.089403
v -72.979068 -0.114303 4.089403
v -68.221970 22.276026 -5.252122
v -68.221970 -0.114303 -5.252122
v -63.934887 22.276026 -16.330308
v -63.934887 -0.114303 -16.330308
v -63.934887 22.276026 -23.335051
v -63.934887 -0.114303 -23.335051
vt 0.000000 0.000000
vt 1.000000 0.000000
vt 0.000000 1.000000
vt 1.000000 1.000000
vt 0.000000 0.000000
vt 1.000000 0.000000
vt 1.000000 1.000000
vt 0.000000 1.000000
vt 0.000000 0.000000
vt 1.000000 0.000000
vt 1.000000 1.000000
vt 0.000000 1.000000
vt 0.000000 0.000000
vt 1.000000 0.000000
vt 1.000000 1.000000
vt 0.000000 1.000000
vt 0.000000 0.000000
vt 1.000000 0.000000
vt 1.000000 1.000000
vt 0.000000 1.000000
vt 0.000000 0.000000
vt 1.000000 0.000000
vt 1.000000 1.000000
vt 0.000000 1.000000
vt 0.000000 0.000000
vt 1.000000 0.000000
vt 1.000000 1.000000
vt 0.000000 1.000000
vt 0.000000 0.000000
vt 1.000000 0.000000
vt 1.000000 1.000000
vt 0.000000 1.000000
vt 0.000000 0.000000
vt 1.000000 0.000000
vt 1.000000 1.000000
vt 0.000000 1.000000
vt 0.000000 0.000000
vt 1.000000 0.000000
vt 1.000000 1.000000
vt 0.000000 1.000000
vt 0.000000 0.000000
vt 1.000000 0.000000
vt 1.000000 1.000000
vt 0.000000 1.000000
vt 0.000000 0.000000
vt 1.000000 0.000000
vt 1.000000 1.000000
vt 0.000000 1.000000
vt 0.000000 0.000000
vt 1.000000 0.000000
vt 1.000000 1.000000
vt 0.000000 1.000000
vt 0.000000 0.000000
vt 1.000000 0.000000
vt 1.000000 1.000000
vt 0.000000 1.000000
vt 0.000000 0.000000
vt 1.000000 0.000000
vt 1.000000 1.000000
vt 0.000000 1.000000
vt 0.000000 0.000000
vt 1.000000 0.000000
vt 1.000000 1.000000
vt 0.000000 1.000000
vt 0.000000 0.000000
vt 1.000000 0.000000
vt 1.000000 1.000000
vt 0.000000 1.000000
vt 0.000000 0.000000
vt 1.000000 0.000000
vt 1.000000 1.000000
vt 0.000000 1.000000
vt 0.000000 0.000000
vt 1.000000 0.000000
vt 1.000000 1.000000
vt 0.000000 1.000000
vt 0.000000 0.000000
vt 1.000000 0.000000
vt 1.000000 1.000000
vt 0.000000 1.000000
vt 0.000000 0.000000
vt 1.000000 0.000000
vt 1.000000 1.000000
vt 0.000000 1.000000
vt 0.000000 0.000000
vt 1.000000 0.000000
vt 1.000000 1.000000
vt 0.000000 1.000000
vt 0.000000 0.000000
vt 1.000000 0.000000
vt 1.000000 1.000000
vt 0.000000 1.000000
vt 0.000000 0.000000
vt 1.000000 0.000000
vt 1.000000 1.000000
vt 0.000000 1.000000
vt 0.000000 0.000000
vt 1.000000 0.000000
vt 1.000000 1.000000
vt 0.000000 1.000000
vt 0.000000 0.000000
vt 1.000000 0.000000
vt 1.000000 1.000000
vt 0.000000 1.000000
vn 0.674448 -0.000000 0.738322
vn 0.674448 -0.000000 0.738322
vn 0.674448 -0.000000 0.738322
vn 0.674448 -0.000000 0.738322
vn -0.720030 0.000000 0.693943
vn -0.720030 0.000000 0.693943
vn -0.720030 0.000000 0.693943
vn -0.720030 0.000000 0.693943
vn -0.697907 0.000000 0.716188
vn -0.697907 0.000000 0.716188
vn -0.697907 0.000000 0.716188
vn -0.697907 0.000000 0.716188
vn -0.145945 0.000000 0.989293
vn -0.145945 0.000000 0.989293
vn -0.145945 0.000000 0.989293
vn -0.145945 0.000000 0.989293
vn 0.005832 -0.000000 0.999983
vn 0.005832 -0.000000 0.999983
vn 0.005832 -0.000000 0.999983
vn 0.005832 -0.000000 0.999983
vn 1.000000 -0.000000 0.000000
vn 1.000000 -0.000000 0.000000
vn 1.000000 -0.000000 0.000000
vn 1.000000 -0.000000 0.000000
vn 0.736650 -0.000000 -0.676274
vn 0.736650 -0.000000 -0.676274
vn 0.736650 -0.000000 -0.676274
vn 0.736650 -0.000000 -0.676274
vn 0.956995 -0.000000 -0.290103
vn 0.956995 -0.000000 -0.290103
vn 0.956995 -0.000000 -0.290103
vn 0.956995 -0.000000 -0.290103
vn 0.759440 -0.000000 -0.650577
vn 0.759440 -0.000000 -0.650577
vn 0.759440 -0.000000 -0.650577
vn 0.759440 -0.000000 -0.650577
vn 1.000000 -0.000000 0.000000
vn 1.000000 -0.000000 0.000000
vn 1.000000 -0.000000 0.000000
vn 1.000000 -0.000000 0.000000
vn 0.000000 -0.000000 -1.000000
vn 0.000000 -0.000000 -1.000000
vn 0.000000 -0.000000 -1.000000
vn 0.000000 -0.000000 -1.000000
vn 0.692143 -0.000000 -0.721760
vn 0.692143 -0.000000 -0.721760
vn 0.692143 -0.000000 -0.721760
vn 0.692143 -0.000000 -0.721760
vn 0.000000 -0.000000 -1.000000
vn 0.000000 -0.000000 -1.000000
vn 0.000000 -0.000000 -1.000000
vn 0.000000 -0.000000 -1.000000
vn 1.000000 -0.000000 0.000000
vn 1.000000 -0.000000 0.000000
vn 1.000000 -0.000000 0.000000
vn 1.000000 -0.000000 0.000000
vn 0.000000 0.000000 1.000000
vn 0.000000 0.000000 1.000000
vn 0.000000 0.000000 1.000000
vn 0.000000 0.000000 1.000000
vn 1.000000 -0.000000 0.000000
vn 1.000000 -0.000000 0.000000
vn 1.000000 -0.000000 0.000000
vn 1.000000 -0.000000 0.000000
vn 0.640297 -0.000000 -0.768127
vn 0.640297 -0.000000 -0.768127
vn 0.640297 -0.000000 -0.768127
vn 0.640297 -0.000000 -0.768127
vn 0.000000 -0.000000 -1.000000
vn 0.000000 -0.000000 -1.000000
vn 0.000000 -0.000000 -1.000000
vn 0.000000 -0.000000 -1.000000
vn -0.771756 0.000000 -0.635919
vn -0.771756 0.000000 -0.635919
vn -0.771756 0.000000 -0.635919
vn -0.771756 0.000000 -0.635919
vn -0.951626 0.000000 -0.307260
vn -0.951626 0.000000 -0.307260
vn -0.951626 0.000000 -0.307260
vn -0.951626 0.000000 -0.307260
vn 0.000000 -0.000000 -1.000000
vn 0.000000 -0.000000 -1.000000
vn 0.000000 -0.000000 -1.000000
vn 0.000000 -0.000000 -1.000000
vn -1.000000 0.000000 0.000000
vn -1.000000 0.000000 0.000000
vn -1.000000 0.000000 0.000000
vn -1.000000 0.000000 0.000000
vn -0.891109 0.000000 -0.453790
vn -0.891109 0.000000 -0.453790
vn -0.891109 0.000000 -0.453790
vn -0.891109 0.000000 -0.453790
vn -0.932603 0.000000 -0.360903
vn -0.932603 0.000000 -0.360903
vn -0.932603 0.000000 -0.360903
vn -0.932603 0.000000 -0.360903
vn -1.000000 0.000000 0.000000
vn -1.000000 0.000000 0.000000
vn -1.000000 0.000000 0.000000
vn -1.000000 0.000000 0.000000
vn -0.028266 0.000000 0.999600
vn -0.028266 0.000000 0.999600
vn -0.028266 0.000000 0.999600
vn -0.028266 0.000000 0.999600
s off
g pPlane1
usemtl initialShadingGroup
f 1/1/1 2/2/2 4/4/3 3/3/4
f 3/5/5 4/6/6 6/7/7 5/8/8
f 2/9/9 1/10/10 7/11/11 8/12/12
f 8/13/13 7/14/14 9/15/15 10/16/16
f 10/17/17 9/18/18 11/19/19 12/20/20
f 12/21/21 11/22/22 13/23/23 14/24/24
f 14/25/25 13/26/26 15/27/27 16/28/28
f 16/29/29 15/30/30 17/31/31 18/32/32
f 18/33/33 17/34/34 19/35/35 20/36/36
f 20/37/37 19/38/38 21/39/39 22/40/40
f 22/41/41 21/42/42 23/43/43 24/44/44
f 24/45/45 23/46/46 25/47/47 26/48/48
f 26/49/49 25/50/50 27/51/51 28/52/52
f 28/53/53 27/54/54 29/55/55 30/56/56
f 30/57/57 29/58/58 31/59/59 32/60/60
f 32/61/61 31/62/62 33/63/63 34/64/64
f 34/65/65 33/66/66 35/67/67 36/68/68
f 36/69/69 35/70/70 37/71/71 38/72/72
f 38/73/73 37/74/74 39/75/75 40/76/76
f 40/77/77 39/78/78 41/79/79 42/80/80
f 42/81/81 41/82/82 43/83/83 44/84/84
f 44/85/85 43/86/86 45/87/87 46/88/88
f 46/89/89 45/90/90 47/91/91 48/92/92
f 48/93/93 47/94/94 49/95/95 50/96/96
f 50/97/97 49/98/98 51/99/99 52/100/100
f 6/104/101 52/101/102 51/102/103 5/103/104
